<mxfile host="app.diagrams.net" modified="2020-09-18T23:45:58.532Z" agent="5.0 (X11)" etag="ly9wizvOwCIQGKf3SzrE" version="13.7.3" type="github">
  <diagram id="yKdZbqVcoZqOLuwMMB4S" name="Page-1">
    <mxGraphModel dx="2090" dy="289" grid="1" gridSize="10" guides="1" tooltips="1" connect="1" arrows="1" fold="1" page="1" pageScale="1" pageWidth="1169" pageHeight="827" math="0" shadow="0">
      <root>
        <mxCell id="0" />
        <mxCell id="1" parent="0" />
        <mxCell id="267" value="Projeto Final - Diagrama Geral do Nĩvel 1" style="shape=umlFrame;whiteSpace=wrap;html=1;fontSize=10;fontColor=#ffffff;fillColor=#647687;strokeColor=#314354;width=273;height=27;fontStyle=1" parent="1" vertex="1">
          <mxGeometry x="-83" y="283.5" width="1363" height="426.5" as="geometry" />
        </mxCell>
        <mxCell id="FtdyLY_3m7sY5ahBleHm-33" value="&lt;font size=&quot;1&quot;&gt;&lt;b style=&quot;font-size: 14px&quot;&gt;B A R R A M E N T O&lt;/b&gt;&lt;/font&gt;" style="rounded=0;whiteSpace=wrap;html=1;fontSize=8;fillColor=#f5f5f5;strokeColor=#666666;fontColor=#333333;" parent="1" vertex="1">
          <mxGeometry x="-60" y="483" width="1320" height="40" as="geometry" />
        </mxCell>
        <mxCell id="36" value="" style="group" parent="1" vertex="1" connectable="0">
          <mxGeometry x="459" y="743" width="11" height="10" as="geometry" />
        </mxCell>
        <mxCell id="37" value="" style="group" parent="36" vertex="1" connectable="0">
          <mxGeometry x="-8.881784197001252e-16" y="-8.881784197001252e-16" width="11" height="10" as="geometry" />
        </mxCell>
        <mxCell id="58" value="" style="group" parent="1" vertex="1" connectable="0">
          <mxGeometry x="640" y="413" width="20" height="70.5" as="geometry" />
        </mxCell>
        <mxCell id="59" value="" style="endArrow=none;html=1;fontColor=#1A1A1A;" parent="58" edge="1">
          <mxGeometry width="50" height="50" relative="1" as="geometry">
            <mxPoint x="10" y="60.5" as="sourcePoint" />
            <mxPoint x="10" as="targetPoint" />
          </mxGeometry>
        </mxCell>
        <mxCell id="60" value="" style="endArrow=none;html=1;fontColor=#1A1A1A;" parent="58" edge="1">
          <mxGeometry width="50" height="50" relative="1" as="geometry">
            <mxPoint y="70.5" as="sourcePoint" />
            <mxPoint x="10" y="60.5" as="targetPoint" />
          </mxGeometry>
        </mxCell>
        <mxCell id="61" value="" style="endArrow=none;html=1;fontColor=#1A1A1A;" parent="58" edge="1">
          <mxGeometry width="50" height="50" relative="1" as="geometry">
            <mxPoint x="20" y="70.5" as="sourcePoint" />
            <mxPoint x="10" y="60.5" as="targetPoint" />
          </mxGeometry>
        </mxCell>
        <mxCell id="134" value="«Component»&lt;br&gt;&lt;b&gt;Produto&lt;/b&gt;" style="html=1;dropTarget=0;" parent="1" vertex="1">
          <mxGeometry x="86" y="323" width="180" height="90" as="geometry" />
        </mxCell>
        <mxCell id="135" value="" style="shape=component;jettyWidth=8;jettyHeight=4;" parent="134" vertex="1">
          <mxGeometry x="1" width="20" height="20" relative="1" as="geometry">
            <mxPoint x="-27" y="7" as="offset" />
          </mxGeometry>
        </mxCell>
        <mxCell id="136" value="" style="group" parent="1" vertex="1" connectable="0">
          <mxGeometry x="226" y="483" width="11" height="10" as="geometry" />
        </mxCell>
        <mxCell id="137" value="" style="group" parent="136" vertex="1" connectable="0">
          <mxGeometry x="-8.881784197001252e-16" y="-8.881784197001252e-16" width="11" height="10" as="geometry" />
        </mxCell>
        <mxCell id="138" value="" style="rhombus;whiteSpace=wrap;html=1;fontSize=8;" parent="1" vertex="1">
          <mxGeometry x="126" y="463.9090909090909" width="12" height="19.09090909090909" as="geometry" />
        </mxCell>
        <mxCell id="139" value="" style="endArrow=none;html=1;fontSize=8;exitX=0.5;exitY=0;exitDx=0;exitDy=0;" parent="1" source="138" edge="1">
          <mxGeometry width="50" height="50" relative="1" as="geometry">
            <mxPoint x="157" y="413" as="sourcePoint" />
            <mxPoint x="132" y="413" as="targetPoint" />
            <Array as="points" />
          </mxGeometry>
        </mxCell>
        <mxCell id="140" value="IProduto" style="text;html=1;strokeColor=none;fillColor=none;align=center;verticalAlign=middle;whiteSpace=wrap;rounded=0;fontSize=10;" parent="1" vertex="1">
          <mxGeometry x="80" y="460.25" width="46" height="20" as="geometry" />
        </mxCell>
        <mxCell id="141" value="" style="group" parent="1" vertex="1" connectable="0">
          <mxGeometry x="217" y="413" width="20" height="70.5" as="geometry" />
        </mxCell>
        <mxCell id="142" value="" style="endArrow=none;html=1;fontColor=#1A1A1A;" parent="141" edge="1">
          <mxGeometry width="50" height="50" relative="1" as="geometry">
            <mxPoint x="10" y="60.5" as="sourcePoint" />
            <mxPoint x="10" as="targetPoint" />
          </mxGeometry>
        </mxCell>
        <mxCell id="143" value="" style="endArrow=none;html=1;fontColor=#1A1A1A;" parent="141" edge="1">
          <mxGeometry width="50" height="50" relative="1" as="geometry">
            <mxPoint y="70.5" as="sourcePoint" />
            <mxPoint x="10" y="60.5" as="targetPoint" />
          </mxGeometry>
        </mxCell>
        <mxCell id="144" value="" style="endArrow=none;html=1;fontColor=#1A1A1A;" parent="141" edge="1">
          <mxGeometry width="50" height="50" relative="1" as="geometry">
            <mxPoint x="20" y="70.5" as="sourcePoint" />
            <mxPoint x="10" y="60.5" as="targetPoint" />
          </mxGeometry>
        </mxCell>
        <mxCell id="FtdyLY_3m7sY5ahBleHm-5" value="«Component»&lt;br&gt;&lt;b&gt;Fornecedor&lt;/b&gt;" style="html=1;dropTarget=0;" parent="1" vertex="1">
          <mxGeometry x="509" y="323" width="180" height="90" as="geometry" />
        </mxCell>
        <mxCell id="FtdyLY_3m7sY5ahBleHm-6" value="" style="shape=component;jettyWidth=8;jettyHeight=4;" parent="FtdyLY_3m7sY5ahBleHm-5" vertex="1">
          <mxGeometry x="1" width="20" height="20" relative="1" as="geometry">
            <mxPoint x="-27" y="7" as="offset" />
          </mxGeometry>
        </mxCell>
        <mxCell id="147" value="" style="rounded=0;whiteSpace=wrap;html=1;fontSize=10;" parent="1" vertex="1">
          <mxGeometry x="80" y="342" width="12" height="10" as="geometry" />
        </mxCell>
        <mxCell id="247" value="idUsuario : String" style="text;html=1;strokeColor=none;fillColor=none;align=center;verticalAlign=middle;whiteSpace=wrap;rounded=0;fontSize=9;fontColor=#1A1A1A;" parent="1" vertex="1">
          <mxGeometry x="6" y="321" width="74" height="20" as="geometry" />
        </mxCell>
        <mxCell id="209" value="&lt;b style=&quot;font-size: 9px&quot;&gt;2.&lt;/b&gt; &lt;i style=&quot;font-size: 9px&quot;&gt;Publisher&lt;/i&gt;:&lt;br style=&quot;font-size: 9px&quot;&gt;/produto/{idLeilao}/buscaProduto" style="text;html=1;strokeColor=none;fillColor=none;align=center;verticalAlign=middle;whiteSpace=wrap;rounded=0;fontSize=9;fontColor=#1A1A1A;" parent="1" vertex="1">
          <mxGeometry x="333" y="557.7275" width="154" height="15.455000000000002" as="geometry" />
        </mxCell>
        <mxCell id="211" value="" style="group" parent="1" vertex="1" connectable="0">
          <mxGeometry x="775" y="426" width="154" height="30.910000000000025" as="geometry" />
        </mxCell>
        <mxCell id="180" value="" style="rounded=0;whiteSpace=wrap;html=1;fillColor=#d5e8d4;strokeColor=#82b366;" parent="211" vertex="1">
          <mxGeometry width="154" height="30.910000000000004" as="geometry" />
        </mxCell>
        <mxCell id="181" value="&lt;b style=&quot;font-size: 9px&quot;&gt;1.&lt;/b&gt; &lt;i style=&quot;font-size: 9px&quot;&gt;Publisher&lt;/i&gt;:&lt;br style=&quot;font-size: 9px&quot;&gt;/leilao/{idUsuario}/produtoDesejado" style="text;html=1;strokeColor=none;fillColor=none;align=center;verticalAlign=middle;whiteSpace=wrap;rounded=0;fontSize=9;fontColor=#1A1A1A;" parent="211" vertex="1">
          <mxGeometry y="7.7275000000000205" width="154" height="15.455000000000002" as="geometry" />
        </mxCell>
        <mxCell id="212" value="" style="group" parent="1" vertex="1" connectable="0">
          <mxGeometry x="680" y="549.09" width="154" height="28.909999999999968" as="geometry" />
        </mxCell>
        <mxCell id="198" value="" style="group;fillColor=#dae8fc;strokeColor=#6c8ebf;container=0;" parent="212" vertex="1" connectable="0">
          <mxGeometry width="154" height="28.91" as="geometry" />
        </mxCell>
        <mxCell id="200" value="" style="group;fontSize=9;fillColor=#d5e8d4;strokeColor=#82b366;container=0;" parent="212" vertex="1" connectable="0">
          <mxGeometry width="154" height="28.91" as="geometry" />
        </mxCell>
        <mxCell id="201" value="" style="rounded=0;whiteSpace=wrap;html=1;fillColor=#d5e8d4;strokeColor=#82b366;" parent="212" vertex="1">
          <mxGeometry width="154" height="28.91" as="geometry" />
        </mxCell>
        <mxCell id="202" value="&lt;b style=&quot;font-size: 9px&quot;&gt;1.&lt;/b&gt; &lt;i style=&quot;font-size: 9px&quot;&gt;Subscriber&lt;/i&gt;:&lt;br style=&quot;font-size: 9px&quot;&gt;/leilao/{idUsuario}/#" style="text;html=1;strokeColor=none;fillColor=none;align=center;verticalAlign=middle;whiteSpace=wrap;rounded=0;fontSize=9;fontColor=#1A1A1A;" parent="212" vertex="1">
          <mxGeometry y="7.227499999999964" width="154" height="14.455" as="geometry" />
        </mxCell>
        <mxCell id="265" style="edgeStyle=orthogonalEdgeStyle;rounded=0;orthogonalLoop=1;jettySize=auto;html=1;exitX=0.75;exitY=1;exitDx=0;exitDy=0;entryX=0.322;entryY=0.001;entryDx=0;entryDy=0;entryPerimeter=0;fontSize=9;fontColor=#FFFFFF;fillColor=#e1d5e7;strokeColor=#9673a6;" parent="1" source="214" target="FtdyLY_3m7sY5ahBleHm-33" edge="1">
          <mxGeometry relative="1" as="geometry" />
        </mxCell>
        <mxCell id="215" value="&lt;b style=&quot;font-size: 9px&quot;&gt;2.&lt;/b&gt; &lt;i style=&quot;font-size: 9px&quot;&gt;Subscriber&lt;/i&gt;:&lt;br style=&quot;font-size: 9px&quot;&gt;/produto/{idLeilao}/#" style="text;html=1;strokeColor=none;fillColor=none;align=center;verticalAlign=middle;whiteSpace=wrap;rounded=0;fontSize=9;fontColor=#1A1A1A;" parent="1" vertex="1">
          <mxGeometry x="250" y="435.0675" width="154" height="15.455000000000002" as="geometry" />
        </mxCell>
        <mxCell id="266" style="edgeStyle=orthogonalEdgeStyle;rounded=0;orthogonalLoop=1;jettySize=auto;html=1;exitX=0.75;exitY=1;exitDx=0;exitDy=0;entryX=0.091;entryY=0.001;entryDx=0;entryDy=0;entryPerimeter=0;fontSize=9;fontColor=#FFFFFF;fillColor=#f8cecc;strokeColor=#b85450;" parent="1" source="217" target="FtdyLY_3m7sY5ahBleHm-33" edge="1">
          <mxGeometry relative="1" as="geometry" />
        </mxCell>
        <mxCell id="218" value="&lt;b style=&quot;font-size: 9px&quot;&gt;3.&lt;/b&gt; &lt;i style=&quot;font-size: 9px&quot;&gt;Publisher&lt;/i&gt;:&lt;br style=&quot;font-size: 9px&quot;&gt;/produto/{idLeilao}/{idProduto}" style="text;html=1;strokeColor=none;fillColor=none;align=center;verticalAlign=middle;whiteSpace=wrap;rounded=0;fontSize=9;fontColor=#1A1A1A;" parent="1" vertex="1">
          <mxGeometry x="-55" y="435.0675" width="154" height="15.455000000000002" as="geometry" />
        </mxCell>
        <mxCell id="257" style="edgeStyle=orthogonalEdgeStyle;rounded=0;orthogonalLoop=1;jettySize=auto;html=1;exitX=0.75;exitY=0;exitDx=0;exitDy=0;entryX=0.691;entryY=1.037;entryDx=0;entryDy=0;entryPerimeter=0;fontSize=9;fontColor=#FFFFFF;fillColor=#f8cecc;strokeColor=#b85450;" parent="1" source="227" target="FtdyLY_3m7sY5ahBleHm-33" edge="1">
          <mxGeometry relative="1" as="geometry">
            <Array as="points">
              <mxPoint x="852" y="590" />
            </Array>
          </mxGeometry>
        </mxCell>
        <mxCell id="228" value="&lt;b style=&quot;font-size: 9px&quot;&gt;3.&lt;/b&gt; &lt;i style=&quot;font-size: 9px&quot;&gt;Subscriber&lt;/i&gt;:&lt;br style=&quot;font-size: 9px&quot;&gt;/produto/{idLeilao}/{idProduto}" style="text;html=1;strokeColor=none;fillColor=none;align=center;verticalAlign=middle;whiteSpace=wrap;rounded=0;fontSize=9;fontColor=#1A1A1A;" parent="1" vertex="1">
          <mxGeometry x="737" y="597.7275" width="154" height="15.455000000000002" as="geometry" />
        </mxCell>
        <mxCell id="263" style="edgeStyle=orthogonalEdgeStyle;rounded=0;orthogonalLoop=1;jettySize=auto;html=1;exitX=0.25;exitY=0;exitDx=0;exitDy=0;entryX=0.27;entryY=1.001;entryDx=0;entryDy=0;entryPerimeter=0;fontSize=9;fontColor=#FFFFFF;fillColor=#dae8fc;strokeColor=#6c8ebf;" parent="1" source="229" target="FtdyLY_3m7sY5ahBleHm-33" edge="1">
          <mxGeometry relative="1" as="geometry">
            <Array as="points">
              <mxPoint x="296" y="593" />
            </Array>
          </mxGeometry>
        </mxCell>
        <mxCell id="230" value="&lt;b style=&quot;font-size: 9px&quot;&gt;4.&lt;/b&gt; &lt;i style=&quot;font-size: 9px&quot;&gt;Publisher&lt;/i&gt;:&lt;br style=&quot;font-size: 9px&quot;&gt;/leilao/{idLeilao}/inicio" style="text;html=1;strokeColor=none;fillColor=none;align=center;verticalAlign=middle;whiteSpace=wrap;rounded=0;fontSize=9;fontColor=#1A1A1A;" parent="1" vertex="1">
          <mxGeometry x="257" y="600.7275" width="154" height="15.455000000000002" as="geometry" />
        </mxCell>
        <mxCell id="260" style="edgeStyle=orthogonalEdgeStyle;rounded=0;orthogonalLoop=1;jettySize=auto;html=1;exitX=0.25;exitY=1;exitDx=0;exitDy=0;entryX=0.608;entryY=0.013;entryDx=0;entryDy=0;entryPerimeter=0;fontSize=9;fontColor=#FFFFFF;fillColor=#dae8fc;strokeColor=#6c8ebf;" parent="1" source="231" target="FtdyLY_3m7sY5ahBleHm-33" edge="1">
          <mxGeometry relative="1" as="geometry" />
        </mxCell>
        <mxCell id="232" value="&lt;b style=&quot;font-size: 9px&quot;&gt;4.&lt;/b&gt; &lt;i style=&quot;font-size: 9px&quot;&gt;Subscriber&lt;/i&gt;:&lt;br style=&quot;font-size: 9px&quot;&gt;/leilao/+/inicio" style="text;html=1;strokeColor=none;fillColor=none;align=center;verticalAlign=middle;whiteSpace=wrap;rounded=0;fontSize=9;fontColor=#1A1A1A;" parent="1" vertex="1">
          <mxGeometry x="704" y="387.72749999999996" width="154" height="15.455000000000002" as="geometry" />
        </mxCell>
        <mxCell id="261" style="edgeStyle=orthogonalEdgeStyle;rounded=0;orthogonalLoop=1;jettySize=auto;html=1;exitX=0.75;exitY=1;exitDx=0;exitDy=0;entryX=0.391;entryY=0.001;entryDx=0;entryDy=0;entryPerimeter=0;fontSize=9;fontColor=#FFFFFF;fillColor=#fff2cc;strokeColor=#d6b656;" parent="1" source="233" target="FtdyLY_3m7sY5ahBleHm-33" edge="1">
          <mxGeometry relative="1" as="geometry">
            <Array as="points">
              <mxPoint x="456" y="413" />
            </Array>
          </mxGeometry>
        </mxCell>
        <mxCell id="234" value="&lt;b style=&quot;font-size: 9px&quot;&gt;5.&lt;/b&gt; &lt;i style=&quot;font-size: 9px&quot;&gt;Publisher&lt;/i&gt;:&lt;br style=&quot;font-size: 9px&quot;&gt;/oferta/{idLeilao}/{idOferta}" style="text;html=1;strokeColor=none;fillColor=none;align=center;verticalAlign=middle;whiteSpace=wrap;rounded=0;fontSize=9;fontColor=#1A1A1A;" parent="1" vertex="1">
          <mxGeometry x="340" y="389.72749999999996" width="154" height="15.455000000000002" as="geometry" />
        </mxCell>
        <mxCell id="258" style="edgeStyle=orthogonalEdgeStyle;rounded=0;orthogonalLoop=1;jettySize=auto;html=1;exitX=0.75;exitY=0;exitDx=0;exitDy=0;entryX=0.732;entryY=1.013;entryDx=0;entryDy=0;entryPerimeter=0;fontSize=9;fontColor=#FFFFFF;fillColor=#fff2cc;strokeColor=#d6b656;" parent="1" source="235" target="FtdyLY_3m7sY5ahBleHm-33" edge="1">
          <mxGeometry relative="1" as="geometry">
            <Array as="points">
              <mxPoint x="906" y="636" />
            </Array>
          </mxGeometry>
        </mxCell>
        <mxCell id="236" value="&lt;b style=&quot;font-size: 9px&quot;&gt;5.&lt;/b&gt; &lt;i style=&quot;font-size: 9px&quot;&gt;Subscriber&lt;/i&gt;:&lt;br style=&quot;font-size: 9px&quot;&gt;/oferta/{idOferta}/+" style="text;html=1;strokeColor=none;fillColor=none;align=center;verticalAlign=middle;whiteSpace=wrap;rounded=0;fontSize=9;fontColor=#1A1A1A;" parent="1" vertex="1">
          <mxGeometry x="791" y="643.7275" width="154" height="15.455000000000002" as="geometry" />
        </mxCell>
        <mxCell id="264" style="edgeStyle=orthogonalEdgeStyle;rounded=0;orthogonalLoop=1;jettySize=auto;html=1;exitX=0.25;exitY=0;exitDx=0;exitDy=0;entryX=0.214;entryY=1.025;entryDx=0;entryDy=0;entryPerimeter=0;fontSize=9;fontColor=#FFFFFF;fillColor=#ffe6cc;strokeColor=#d79b00;" parent="1" source="237" target="FtdyLY_3m7sY5ahBleHm-33" edge="1">
          <mxGeometry relative="1" as="geometry">
            <Array as="points">
              <mxPoint x="223" y="636" />
            </Array>
          </mxGeometry>
        </mxCell>
        <mxCell id="238" value="&lt;b style=&quot;font-size: 9px&quot;&gt;6.&lt;/b&gt; &lt;i style=&quot;font-size: 9px&quot;&gt;Publisher&lt;/i&gt;:&lt;br style=&quot;font-size: 9px&quot;&gt;/oferta/{idLeilao}/{idOferta}/menorPreco" style="text;html=1;strokeColor=none;fillColor=none;align=center;verticalAlign=middle;whiteSpace=wrap;rounded=0;fontSize=9;fontColor=#1A1A1A;" parent="1" vertex="1">
          <mxGeometry x="184" y="643.7275" width="154" height="15.455000000000002" as="geometry" />
        </mxCell>
        <mxCell id="259" style="edgeStyle=orthogonalEdgeStyle;rounded=0;orthogonalLoop=1;jettySize=auto;html=1;exitX=0.25;exitY=1;exitDx=0;exitDy=0;entryX=0.895;entryY=-0.011;entryDx=0;entryDy=0;entryPerimeter=0;fontSize=9;fontColor=#FFFFFF;fillColor=#ffe6cc;strokeColor=#d79b00;" parent="1" source="239" target="FtdyLY_3m7sY5ahBleHm-33" edge="1">
          <mxGeometry relative="1" as="geometry" />
        </mxCell>
        <mxCell id="240" value="&lt;b style=&quot;font-size: 9px&quot;&gt;6.&lt;/b&gt; &lt;i style=&quot;font-size: 9px&quot;&gt;Subscriber&lt;/i&gt;:&lt;br style=&quot;font-size: 9px&quot;&gt;/oferta/{idLeilao}/+/{menorPreco}" style="text;html=1;strokeColor=none;fillColor=none;align=center;verticalAlign=middle;whiteSpace=wrap;rounded=0;fontSize=9;fontColor=#1A1A1A;" parent="1" vertex="1">
          <mxGeometry x="1082" y="427.3375" width="154" height="15.455000000000002" as="geometry" />
        </mxCell>
        <mxCell id="255" style="edgeStyle=orthogonalEdgeStyle;rounded=0;orthogonalLoop=1;jettySize=auto;html=1;exitX=0.25;exitY=1;exitDx=0;exitDy=0;entryX=0.662;entryY=0.001;entryDx=0;entryDy=0;entryPerimeter=0;fontSize=9;fontColor=#FFFFFF;fillColor=#d5e8d4;strokeColor=#82b366;" parent="1" source="180" target="FtdyLY_3m7sY5ahBleHm-33" edge="1">
          <mxGeometry relative="1" as="geometry" />
        </mxCell>
        <mxCell id="FtdyLY_3m7sY5ahBleHm-15" value="" style="rounded=0;whiteSpace=wrap;html=1;fontSize=10;" parent="1" vertex="1">
          <mxGeometry x="503" y="328" width="12" height="10" as="geometry" />
        </mxCell>
        <mxCell id="244" value="idUsuario : String" style="text;html=1;strokeColor=none;fillColor=none;align=center;verticalAlign=middle;whiteSpace=wrap;rounded=0;fontSize=9;fontColor=#1A1A1A;" parent="1" vertex="1">
          <mxGeometry x="428" y="321" width="74" height="20" as="geometry" />
        </mxCell>
        <mxCell id="245" value="oferta : double" style="text;html=1;strokeColor=none;fillColor=none;align=center;verticalAlign=middle;whiteSpace=wrap;rounded=0;fontSize=9;fontColor=#1A1A1A;" parent="1" vertex="1">
          <mxGeometry x="434.5" y="336" width="74" height="20" as="geometry" />
        </mxCell>
        <mxCell id="246" value="idOferta : int" style="text;html=1;strokeColor=none;fillColor=none;align=center;verticalAlign=middle;whiteSpace=wrap;rounded=0;fontSize=9;fontColor=#1A1A1A;" parent="1" vertex="1">
          <mxGeometry x="443.5" y="350" width="58.5" height="20" as="geometry" />
        </mxCell>
        <mxCell id="146" value="" style="rounded=0;whiteSpace=wrap;html=1;fontSize=10;" parent="1" vertex="1">
          <mxGeometry x="80" y="328" width="12" height="10" as="geometry" />
        </mxCell>
        <mxCell id="248" value="dadosProduto : Map&amp;lt;String, Object&amp;gt;" style="text;html=1;strokeColor=none;fillColor=none;align=center;verticalAlign=middle;whiteSpace=wrap;rounded=0;fontSize=9;fontColor=#1A1A1A;" parent="1" vertex="1">
          <mxGeometry x="-70" y="336" width="150" height="20" as="geometry" />
        </mxCell>
        <mxCell id="256" style="edgeStyle=orthogonalEdgeStyle;rounded=0;orthogonalLoop=1;jettySize=auto;html=1;exitX=0.75;exitY=0;exitDx=0;exitDy=0;entryX=0.648;entryY=1.037;entryDx=0;entryDy=0;entryPerimeter=0;fontSize=9;fontColor=#FFFFFF;fillColor=#d5e8d4;strokeColor=#82b366;" parent="1" source="201" target="FtdyLY_3m7sY5ahBleHm-33" edge="1">
          <mxGeometry relative="1" as="geometry" />
        </mxCell>
        <mxCell id="227" value="" style="rounded=0;whiteSpace=wrap;html=1;fillColor=#f8cecc;strokeColor=#b85450;" parent="1" vertex="1">
          <mxGeometry x="737" y="590" width="154" height="30.910000000000004" as="geometry" />
        </mxCell>
        <mxCell id="235" value="" style="rounded=0;whiteSpace=wrap;html=1;fillColor=#fff2cc;strokeColor=#d6b656;" parent="1" vertex="1">
          <mxGeometry x="791" y="636" width="154" height="30.910000000000004" as="geometry" />
        </mxCell>
        <mxCell id="239" value="" style="rounded=0;whiteSpace=wrap;html=1;fillColor=#ffe6cc;strokeColor=#d79b00;" parent="1" vertex="1">
          <mxGeometry x="1082" y="419.61" width="154" height="30.910000000000004" as="geometry" />
        </mxCell>
        <mxCell id="231" value="" style="rounded=0;whiteSpace=wrap;html=1;fillColor=#dae8fc;strokeColor=#6c8ebf;" parent="1" vertex="1">
          <mxGeometry x="704" y="380" width="154" height="30.910000000000004" as="geometry" />
        </mxCell>
        <mxCell id="233" value="" style="rounded=0;whiteSpace=wrap;html=1;fillColor=#fff2cc;strokeColor=#d6b656;" parent="1" vertex="1">
          <mxGeometry x="340" y="382" width="154" height="30.910000000000004" as="geometry" />
        </mxCell>
        <mxCell id="208" value="" style="rounded=0;whiteSpace=wrap;html=1;fillColor=#e1d5e7;strokeColor=#9673a6;" parent="1" vertex="1">
          <mxGeometry x="333" y="550" width="154" height="30.910000000000004" as="geometry" />
        </mxCell>
        <mxCell id="229" value="" style="rounded=0;whiteSpace=wrap;html=1;fillColor=#dae8fc;strokeColor=#6c8ebf;" parent="1" vertex="1">
          <mxGeometry x="257" y="593" width="154" height="30.910000000000004" as="geometry" />
        </mxCell>
        <mxCell id="237" value="" style="rounded=0;whiteSpace=wrap;html=1;fillColor=#ffe6cc;strokeColor=#d79b00;" parent="1" vertex="1">
          <mxGeometry x="170" y="636" width="180" height="30.91" as="geometry" />
        </mxCell>
        <mxCell id="214" value="" style="rounded=0;whiteSpace=wrap;html=1;fillColor=#e1d5e7;strokeColor=#9673a6;" parent="1" vertex="1">
          <mxGeometry x="250" y="427.34000000000003" width="154" height="30.910000000000004" as="geometry" />
        </mxCell>
        <mxCell id="217" value="" style="rounded=0;whiteSpace=wrap;html=1;fillColor=#f8cecc;strokeColor=#b85450;" parent="1" vertex="1">
          <mxGeometry x="-55" y="427.34000000000003" width="154" height="30.910000000000004" as="geometry" />
        </mxCell>
        <mxCell id="50" value="IOferta" style="text;html=1;strokeColor=none;fillColor=none;align=center;verticalAlign=middle;whiteSpace=wrap;rounded=0;fontSize=10;" parent="1" vertex="1">
          <mxGeometry x="494" y="450.52" width="73.25" height="20" as="geometry" />
        </mxCell>
        <mxCell id="243" value="" style="rounded=0;whiteSpace=wrap;html=1;fontSize=10;" parent="1" vertex="1">
          <mxGeometry x="503" y="357" width="12" height="10" as="geometry" />
        </mxCell>
        <mxCell id="hy4_8cDqSqlEhXUEPwc4-270" value="IProduto" style="text;html=1;strokeColor=none;fillColor=none;align=center;verticalAlign=middle;whiteSpace=wrap;rounded=0;fontSize=10;" parent="1" vertex="1">
          <mxGeometry x="217" y="458.25" width="73.25" height="20" as="geometry" />
        </mxCell>
        <mxCell id="FtdyLY_3m7sY5ahBleHm-55" value="" style="group" parent="1" vertex="1" connectable="0">
          <mxGeometry x="649" y="483" width="11" height="10" as="geometry" />
        </mxCell>
        <mxCell id="FtdyLY_3m7sY5ahBleHm-56" value="" style="group" parent="FtdyLY_3m7sY5ahBleHm-55" vertex="1" connectable="0">
          <mxGeometry x="-8.881784197001252e-16" y="-8.881784197001252e-16" width="11" height="10" as="geometry" />
        </mxCell>
        <mxCell id="FtdyLY_3m7sY5ahBleHm-34" value="" style="rhombus;whiteSpace=wrap;html=1;fontSize=8;" parent="1" vertex="1">
          <mxGeometry x="549" y="463.9090909090909" width="12" height="19.09090909090909" as="geometry" />
        </mxCell>
        <mxCell id="FtdyLY_3m7sY5ahBleHm-35" value="" style="endArrow=none;html=1;fontSize=8;exitX=0.5;exitY=0;exitDx=0;exitDy=0;" parent="1" source="FtdyLY_3m7sY5ahBleHm-34" edge="1">
          <mxGeometry width="50" height="50" relative="1" as="geometry">
            <mxPoint x="580" y="413" as="sourcePoint" />
            <mxPoint x="555" y="413" as="targetPoint" />
            <Array as="points" />
          </mxGeometry>
        </mxCell>
        <mxCell id="FtdyLY_3m7sY5ahBleHm-63" value="" style="rounded=0;whiteSpace=wrap;html=1;fontSize=10;" parent="1" vertex="1">
          <mxGeometry x="503" y="342" width="12" height="10" as="geometry" />
        </mxCell>
        <mxCell id="hy4_8cDqSqlEhXUEPwc4-268" value="ILeilao" style="text;html=1;strokeColor=none;fillColor=none;align=center;verticalAlign=middle;whiteSpace=wrap;rounded=0;fontSize=10;" parent="1" vertex="1">
          <mxGeometry x="649.5" y="456.90999999999997" width="41" height="20" as="geometry" />
        </mxCell>
        <mxCell id="qJZjZToz0Abcoc8ij44r-267" value="" style="group" vertex="1" connectable="0" parent="1">
          <mxGeometry x="790" y="322" width="293" height="171" as="geometry" />
        </mxCell>
        <mxCell id="115" value="«Component»&lt;br&gt;&lt;b&gt;Comprador&lt;/b&gt;" style="html=1;dropTarget=0;" parent="qJZjZToz0Abcoc8ij44r-267" vertex="1">
          <mxGeometry x="110" y="1" width="180" height="90" as="geometry" />
        </mxCell>
        <mxCell id="116" value="" style="shape=component;jettyWidth=8;jettyHeight=4;" parent="115" vertex="1">
          <mxGeometry x="1" width="20" height="20" relative="1" as="geometry">
            <mxPoint x="-27" y="7" as="offset" />
          </mxGeometry>
        </mxCell>
        <mxCell id="117" value="" style="group" parent="qJZjZToz0Abcoc8ij44r-267" vertex="1" connectable="0">
          <mxGeometry x="250" y="161" width="11" height="10" as="geometry" />
        </mxCell>
        <mxCell id="118" value="" style="group" parent="117" vertex="1" connectable="0">
          <mxGeometry x="-8.881784197001252e-16" y="-8.881784197001252e-16" width="11" height="10" as="geometry" />
        </mxCell>
        <mxCell id="119" value="" style="rhombus;whiteSpace=wrap;html=1;fontSize=8;" parent="qJZjZToz0Abcoc8ij44r-267" vertex="1">
          <mxGeometry x="150" y="141.90909090909088" width="12" height="19.09090909090909" as="geometry" />
        </mxCell>
        <mxCell id="120" value="" style="endArrow=none;html=1;fontSize=8;exitX=0.5;exitY=0;exitDx=0;exitDy=0;" parent="qJZjZToz0Abcoc8ij44r-267" source="119" edge="1">
          <mxGeometry width="50" height="50" relative="1" as="geometry">
            <mxPoint x="181" y="91" as="sourcePoint" />
            <mxPoint x="156" y="91" as="targetPoint" />
            <Array as="points" />
          </mxGeometry>
        </mxCell>
        <mxCell id="121" value="ILeilao" style="text;html=1;strokeColor=none;fillColor=none;align=center;verticalAlign=middle;whiteSpace=wrap;rounded=0;fontSize=10;" parent="qJZjZToz0Abcoc8ij44r-267" vertex="1">
          <mxGeometry x="111" y="139" width="40" height="20" as="geometry" />
        </mxCell>
        <mxCell id="122" value="" style="group" parent="qJZjZToz0Abcoc8ij44r-267" vertex="1" connectable="0">
          <mxGeometry x="241" y="91" width="20" height="70.5" as="geometry" />
        </mxCell>
        <mxCell id="123" value="" style="endArrow=none;html=1;fontColor=#1A1A1A;" parent="122" edge="1">
          <mxGeometry width="50" height="50" relative="1" as="geometry">
            <mxPoint x="10" y="60.5" as="sourcePoint" />
            <mxPoint x="10" as="targetPoint" />
          </mxGeometry>
        </mxCell>
        <mxCell id="124" value="" style="endArrow=none;html=1;fontColor=#1A1A1A;" parent="122" edge="1">
          <mxGeometry width="50" height="50" relative="1" as="geometry">
            <mxPoint y="70.5" as="sourcePoint" />
            <mxPoint x="10" y="60.5" as="targetPoint" />
          </mxGeometry>
        </mxCell>
        <mxCell id="125" value="" style="endArrow=none;html=1;fontColor=#1A1A1A;" parent="122" edge="1">
          <mxGeometry width="50" height="50" relative="1" as="geometry">
            <mxPoint x="20" y="70.5" as="sourcePoint" />
            <mxPoint x="10" y="60.5" as="targetPoint" />
          </mxGeometry>
        </mxCell>
        <mxCell id="127" value="" style="rounded=0;whiteSpace=wrap;html=1;fontSize=10;" parent="qJZjZToz0Abcoc8ij44r-267" vertex="1">
          <mxGeometry x="104" y="6" width="12" height="10" as="geometry" />
        </mxCell>
        <mxCell id="128" value="" style="rounded=0;whiteSpace=wrap;html=1;fontSize=10;" parent="qJZjZToz0Abcoc8ij44r-267" vertex="1">
          <mxGeometry x="104" y="20" width="12" height="10" as="geometry" />
        </mxCell>
        <mxCell id="241" value="idUsuario : String" style="text;html=1;strokeColor=none;fillColor=none;align=center;verticalAlign=middle;whiteSpace=wrap;rounded=0;fontSize=9;fontColor=#1A1A1A;" parent="qJZjZToz0Abcoc8ij44r-267" vertex="1">
          <mxGeometry x="30" width="74" height="20" as="geometry" />
        </mxCell>
        <mxCell id="242" value="produtoDesejado : String" style="text;html=1;strokeColor=none;fillColor=none;align=center;verticalAlign=middle;whiteSpace=wrap;rounded=0;fontSize=9;fontColor=#1A1A1A;" parent="qJZjZToz0Abcoc8ij44r-267" vertex="1">
          <mxGeometry y="14" width="104" height="20" as="geometry" />
        </mxCell>
        <mxCell id="hy4_8cDqSqlEhXUEPwc4-267" value="IOferta" style="text;html=1;strokeColor=none;fillColor=none;align=center;verticalAlign=middle;whiteSpace=wrap;rounded=0;fontSize=10;" parent="qJZjZToz0Abcoc8ij44r-267" vertex="1">
          <mxGeometry x="253" y="136.91000000000003" width="40" height="20" as="geometry" />
        </mxCell>
        <mxCell id="1HcAewFEVQoLlggNXvDx-267" value="" style="group" vertex="1" connectable="0" parent="1">
          <mxGeometry x="343" y="523" width="346" height="160" as="geometry" />
        </mxCell>
        <mxCell id="45" value="ILeilao" style="text;html=1;strokeColor=none;fillColor=none;align=center;verticalAlign=middle;whiteSpace=wrap;rounded=0;fontSize=10;rotation=-90;" parent="1HcAewFEVQoLlggNXvDx-267" vertex="1">
          <mxGeometry x="296.5" y="17.730000000000018" width="40" height="20" as="geometry" />
        </mxCell>
        <mxCell id="49" value="" style="group;rotation=-180;" parent="1HcAewFEVQoLlggNXvDx-267" vertex="1" connectable="0">
          <mxGeometry x="172" width="12" height="70" as="geometry" />
        </mxCell>
        <mxCell id="46" value="" style="rhombus;whiteSpace=wrap;html=1;fontSize=8;rotation=-180;" parent="49" vertex="1">
          <mxGeometry width="12" height="19.09090909090909" as="geometry" />
        </mxCell>
        <mxCell id="47" value="" style="endArrow=none;html=1;fontSize=8;exitX=0.5;exitY=0;exitDx=0;exitDy=0;" parent="49" source="46" edge="1">
          <mxGeometry width="50" height="50" relative="1" as="geometry">
            <mxPoint x="-19" y="70" as="sourcePoint" />
            <mxPoint x="6" y="70" as="targetPoint" />
            <Array as="points" />
          </mxGeometry>
        </mxCell>
        <mxCell id="66" value="" style="group;rotation=-180;" parent="1HcAewFEVQoLlggNXvDx-267" vertex="1" connectable="0">
          <mxGeometry x="317" width="20" height="70.5" as="geometry" />
        </mxCell>
        <mxCell id="67" value="" style="endArrow=none;html=1;fontColor=#1A1A1A;" parent="66" edge="1">
          <mxGeometry width="50" height="50" relative="1" as="geometry">
            <mxPoint x="10" y="10" as="sourcePoint" />
            <mxPoint x="10" y="71" as="targetPoint" />
          </mxGeometry>
        </mxCell>
        <mxCell id="68" value="" style="endArrow=none;html=1;fontColor=#1A1A1A;" parent="66" edge="1">
          <mxGeometry width="50" height="50" relative="1" as="geometry">
            <mxPoint x="20" as="sourcePoint" />
            <mxPoint x="10" y="10" as="targetPoint" />
          </mxGeometry>
        </mxCell>
        <mxCell id="69" value="" style="endArrow=none;html=1;fontColor=#1A1A1A;" parent="66" edge="1">
          <mxGeometry width="50" height="50" relative="1" as="geometry">
            <mxPoint as="sourcePoint" />
            <mxPoint x="10" y="10" as="targetPoint" />
          </mxGeometry>
        </mxCell>
        <mxCell id="33" value="«Component»&lt;br&gt;&lt;b&gt;Leilao&lt;/b&gt;" style="html=1;dropTarget=0;" parent="1HcAewFEVQoLlggNXvDx-267" vertex="1">
          <mxGeometry x="166" y="70" width="180" height="90" as="geometry" />
        </mxCell>
        <mxCell id="34" value="" style="shape=component;jettyWidth=8;jettyHeight=4;" parent="33" vertex="1">
          <mxGeometry x="1" width="20" height="20" relative="1" as="geometry">
            <mxPoint x="-27" y="7" as="offset" />
          </mxGeometry>
        </mxCell>
        <mxCell id="108" value="" style="group" parent="1HcAewFEVQoLlggNXvDx-267" vertex="1" connectable="0">
          <mxGeometry x="160" y="75" width="12" height="81" as="geometry" />
        </mxCell>
        <mxCell id="35" value="" style="rounded=0;whiteSpace=wrap;html=1;fontSize=10;" parent="108" vertex="1">
          <mxGeometry width="12" height="10" as="geometry" />
        </mxCell>
        <mxCell id="40" value="" style="rounded=0;whiteSpace=wrap;html=1;fontSize=10;" parent="108" vertex="1">
          <mxGeometry y="14" width="12" height="10" as="geometry" />
        </mxCell>
        <mxCell id="41" value="" style="rounded=0;whiteSpace=wrap;html=1;fontSize=10;" parent="108" vertex="1">
          <mxGeometry y="28" width="12" height="10" as="geometry" />
        </mxCell>
        <mxCell id="42" value="" style="rounded=0;whiteSpace=wrap;html=1;fontSize=10;" parent="108" vertex="1">
          <mxGeometry y="42" width="12" height="10" as="geometry" />
        </mxCell>
        <mxCell id="43" value="" style="rounded=0;whiteSpace=wrap;html=1;fontSize=10;" parent="108" vertex="1">
          <mxGeometry y="57" width="12" height="10" as="geometry" />
        </mxCell>
        <mxCell id="44" value="" style="rounded=0;whiteSpace=wrap;html=1;fontSize=10;" parent="108" vertex="1">
          <mxGeometry y="71" width="12" height="10" as="geometry" />
        </mxCell>
        <mxCell id="249" value="idLeilao : String" style="text;html=1;strokeColor=none;fillColor=none;align=center;verticalAlign=middle;whiteSpace=wrap;rounded=0;fontSize=9;fontColor=#1A1A1A;" parent="1HcAewFEVQoLlggNXvDx-267" vertex="1">
          <mxGeometry x="89" y="69" width="74" height="20" as="geometry" />
        </mxCell>
        <mxCell id="250" value="Comprador : Object" style="text;html=1;strokeColor=none;fillColor=none;align=center;verticalAlign=middle;whiteSpace=wrap;rounded=0;fontSize=9;fontColor=#1A1A1A;" parent="1HcAewFEVQoLlggNXvDx-267" vertex="1">
          <mxGeometry x="74" y="82.90999999999997" width="86" height="20" as="geometry" />
        </mxCell>
        <mxCell id="251" value="Produto : Object" style="text;html=1;strokeColor=none;fillColor=none;align=center;verticalAlign=middle;whiteSpace=wrap;rounded=0;fontSize=9;fontColor=#1A1A1A;" parent="1HcAewFEVQoLlggNXvDx-267" vertex="1">
          <mxGeometry x="87" y="96.90999999999997" width="73" height="20" as="geometry" />
        </mxCell>
        <mxCell id="252" value="Fornecedor : Object" style="text;html=1;strokeColor=none;fillColor=none;align=center;verticalAlign=middle;whiteSpace=wrap;rounded=0;fontSize=9;fontColor=#1A1A1A;" parent="1HcAewFEVQoLlggNXvDx-267" vertex="1">
          <mxGeometry x="75" y="111" width="83" height="20" as="geometry" />
        </mxCell>
        <mxCell id="253" value="idOfertaMenorPreco : String" style="text;html=1;strokeColor=none;fillColor=none;align=center;verticalAlign=middle;whiteSpace=wrap;rounded=0;fontSize=9;fontColor=#1A1A1A;" parent="1HcAewFEVQoLlggNXvDx-267" vertex="1">
          <mxGeometry x="40" y="126" width="121" height="20" as="geometry" />
        </mxCell>
        <mxCell id="254" value="lstOfertas : List&amp;lt;Map&amp;lt;String,Object&amp;gt;&amp;gt;" style="text;html=1;strokeColor=none;fillColor=none;align=center;verticalAlign=middle;whiteSpace=wrap;rounded=0;fontSize=9;fontColor=#1A1A1A;" parent="1HcAewFEVQoLlggNXvDx-267" vertex="1">
          <mxGeometry y="140" width="165" height="20" as="geometry" />
        </mxCell>
        <mxCell id="hy4_8cDqSqlEhXUEPwc4-269" value="IProduto" style="text;html=1;strokeColor=none;fillColor=none;align=center;verticalAlign=middle;whiteSpace=wrap;rounded=0;fontSize=10;rotation=-90;" parent="1HcAewFEVQoLlggNXvDx-267" vertex="1">
          <mxGeometry x="165" y="20" width="45" height="20" as="geometry" />
        </mxCell>
        <mxCell id="hy4_8cDqSqlEhXUEPwc4-273" value="" style="group;rotation=-180;" parent="1HcAewFEVQoLlggNXvDx-267" vertex="1" connectable="0">
          <mxGeometry x="190" width="20" height="70.5" as="geometry" />
        </mxCell>
        <mxCell id="hy4_8cDqSqlEhXUEPwc4-274" value="" style="endArrow=none;html=1;fontColor=#1A1A1A;" parent="hy4_8cDqSqlEhXUEPwc4-273" edge="1">
          <mxGeometry width="50" height="50" relative="1" as="geometry">
            <mxPoint x="10" y="10" as="sourcePoint" />
            <mxPoint x="10" y="71" as="targetPoint" />
          </mxGeometry>
        </mxCell>
        <mxCell id="hy4_8cDqSqlEhXUEPwc4-275" value="" style="endArrow=none;html=1;fontColor=#1A1A1A;" parent="hy4_8cDqSqlEhXUEPwc4-273" edge="1">
          <mxGeometry width="50" height="50" relative="1" as="geometry">
            <mxPoint x="20" as="sourcePoint" />
            <mxPoint x="10" y="10" as="targetPoint" />
          </mxGeometry>
        </mxCell>
        <mxCell id="hy4_8cDqSqlEhXUEPwc4-276" value="" style="endArrow=none;html=1;fontColor=#1A1A1A;" parent="hy4_8cDqSqlEhXUEPwc4-273" edge="1">
          <mxGeometry width="50" height="50" relative="1" as="geometry">
            <mxPoint as="sourcePoint" />
            <mxPoint x="10" y="10" as="targetPoint" />
          </mxGeometry>
        </mxCell>
        <mxCell id="hy4_8cDqSqlEhXUEPwc4-277" value="" style="group;rotation=-180;" parent="1HcAewFEVQoLlggNXvDx-267" vertex="1" connectable="0">
          <mxGeometry x="301" width="12" height="70" as="geometry" />
        </mxCell>
        <mxCell id="hy4_8cDqSqlEhXUEPwc4-278" value="" style="rhombus;whiteSpace=wrap;html=1;fontSize=8;rotation=-180;" parent="hy4_8cDqSqlEhXUEPwc4-277" vertex="1">
          <mxGeometry width="12" height="19.09090909090909" as="geometry" />
        </mxCell>
        <mxCell id="hy4_8cDqSqlEhXUEPwc4-279" value="" style="endArrow=none;html=1;fontSize=8;exitX=0.5;exitY=0;exitDx=0;exitDy=0;" parent="hy4_8cDqSqlEhXUEPwc4-277" source="hy4_8cDqSqlEhXUEPwc4-278" edge="1">
          <mxGeometry width="50" height="50" relative="1" as="geometry">
            <mxPoint x="-19" y="70" as="sourcePoint" />
            <mxPoint x="6" y="70" as="targetPoint" />
            <Array as="points" />
          </mxGeometry>
        </mxCell>
        <mxCell id="hy4_8cDqSqlEhXUEPwc4-280" value="" style="group;rotation=-180;" parent="1HcAewFEVQoLlggNXvDx-267" vertex="1" connectable="0">
          <mxGeometry x="258" width="20" height="70.5" as="geometry" />
        </mxCell>
        <mxCell id="hy4_8cDqSqlEhXUEPwc4-281" value="" style="endArrow=none;html=1;fontColor=#1A1A1A;" parent="hy4_8cDqSqlEhXUEPwc4-280" edge="1">
          <mxGeometry width="50" height="50" relative="1" as="geometry">
            <mxPoint x="10" y="10" as="sourcePoint" />
            <mxPoint x="10" y="71" as="targetPoint" />
          </mxGeometry>
        </mxCell>
        <mxCell id="hy4_8cDqSqlEhXUEPwc4-282" value="" style="endArrow=none;html=1;fontColor=#1A1A1A;" parent="hy4_8cDqSqlEhXUEPwc4-280" edge="1">
          <mxGeometry width="50" height="50" relative="1" as="geometry">
            <mxPoint x="20" as="sourcePoint" />
            <mxPoint x="10" y="10" as="targetPoint" />
          </mxGeometry>
        </mxCell>
        <mxCell id="hy4_8cDqSqlEhXUEPwc4-283" value="" style="endArrow=none;html=1;fontColor=#1A1A1A;" parent="hy4_8cDqSqlEhXUEPwc4-280" edge="1">
          <mxGeometry width="50" height="50" relative="1" as="geometry">
            <mxPoint as="sourcePoint" />
            <mxPoint x="10" y="10" as="targetPoint" />
          </mxGeometry>
        </mxCell>
        <mxCell id="hy4_8cDqSqlEhXUEPwc4-284" value="" style="group;rotation=-180;" parent="1HcAewFEVQoLlggNXvDx-267" vertex="1" connectable="0">
          <mxGeometry x="242" width="12" height="70" as="geometry" />
        </mxCell>
        <mxCell id="hy4_8cDqSqlEhXUEPwc4-285" value="" style="rhombus;whiteSpace=wrap;html=1;fontSize=8;rotation=-180;" parent="hy4_8cDqSqlEhXUEPwc4-284" vertex="1">
          <mxGeometry width="12" height="19.09090909090909" as="geometry" />
        </mxCell>
        <mxCell id="hy4_8cDqSqlEhXUEPwc4-286" value="" style="endArrow=none;html=1;fontSize=8;exitX=0.5;exitY=0;exitDx=0;exitDy=0;" parent="hy4_8cDqSqlEhXUEPwc4-284" source="hy4_8cDqSqlEhXUEPwc4-285" edge="1">
          <mxGeometry width="50" height="50" relative="1" as="geometry">
            <mxPoint x="-19" y="70" as="sourcePoint" />
            <mxPoint x="6" y="70" as="targetPoint" />
            <Array as="points" />
          </mxGeometry>
        </mxCell>
        <mxCell id="hy4_8cDqSqlEhXUEPwc4-287" value="IOferta" style="text;html=1;strokeColor=none;fillColor=none;align=center;verticalAlign=middle;whiteSpace=wrap;rounded=0;fontSize=10;rotation=-90;" parent="1HcAewFEVQoLlggNXvDx-267" vertex="1">
          <mxGeometry x="236" y="17.730000000000018" width="40" height="20" as="geometry" />
        </mxCell>
        <mxCell id="262" style="edgeStyle=orthogonalEdgeStyle;rounded=0;orthogonalLoop=1;jettySize=auto;html=1;exitX=0.25;exitY=0;exitDx=0;exitDy=0;entryX=0.327;entryY=1.013;entryDx=0;entryDy=0;entryPerimeter=0;fontSize=9;fontColor=#FFFFFF;fillColor=#e1d5e7;strokeColor=#9673a6;" parent="1" source="208" target="FtdyLY_3m7sY5ahBleHm-33" edge="1">
          <mxGeometry relative="1" as="geometry" />
        </mxCell>
      </root>
    </mxGraphModel>
  </diagram>
</mxfile>
